<?xml version="1.0" encoding="UTF-8"?>
<svg 
	xmlns="http://www.w3.org/2000/svg" 
	xmlns:xlink="http://www.w3.org/1999/xlink" 
	xmlns:animation="http://www.4d.com/animation" 
	version="1.1" 
	width="320" 
	height="3840">

	<g>
	<g id="loader">
		<line 
			id="line0" 
			x1="15" 
			y1="160" 
			x2="65" 
			y2="160" 
			stroke="#111" 
			stroke-width="30" 
			style="stroke-linecap:round"/>
		<use xlink:href="#line0" transform="rotate(30,160,160)" opacity=".0833"/>
		<use xlink:href="#line0" transform="rotate(60,160,160)" opacity=".166"/>
		<use xlink:href="#line0" transform="rotate(90,160,160)" opacity=".25"/>
		<use xlink:href="#line0" transform="rotate(120,160,160)" opacity=".3333"/>
		<use xlink:href="#line0" transform="rotate(150,160,160)" opacity=".4166"/>
		<use xlink:href="#line0" transform="rotate(180,160,160)" opacity=".5"/>
		<use xlink:href="#line0" transform="rotate(210,160,160)" opacity=".5833"/>
		<use xlink:href="#line0" transform="rotate(240,160,160)" opacity=".6666"/>
		<use xlink:href="#line0" transform="rotate(270,160,160)" opacity=".75"/>
		<use xlink:href="#line0" transform="rotate(300,160,160)" opacity=".8333"/>
		<use xlink:href="#line0" transform="rotate(330,160,160)" opacity=".9166"/>
	</g>

	<use xlink:href="#loader" transform="translate(0,320) rotate(30,160,160)"/>
	<use xlink:href="#loader" transform="translate(0,640) rotate(60,160,160)"/>
	<use xlink:href="#loader" transform="translate(0,960) rotate(90,160,160)"/>
	<use xlink:href="#loader" transform="translate(0,1280) rotate(120,160,160)"/>
	<use xlink:href="#loader" transform="translate(0,1600) rotate(150,160,160)"/>
	<use xlink:href="#loader" transform="translate(0,1920) rotate(180,160,160)"/>
	<use xlink:href="#loader" transform="translate(0,2240) rotate(210,160,160)"/>
	<use xlink:href="#loader" transform="translate(0,2560) rotate(240,160,160)"/>
	<use xlink:href="#loader" transform="translate(0,2880) rotate(270,160,160)"/>
	<use xlink:href="#loader" transform="translate(0,3200) rotate(300,160,160)"/>
	<use xlink:href="#loader" transform="translate(0,3520) rotate(330,160,160)"/>
	</g>
</svg>